<svg width="69" height="15" viewBox="0 0 69 15" fill="none" xmlns="http://www.w3.org/2000/svg">
<path d="M2.605 2.18V4.67H6.91V6.59H2.605V9.08H7.39V11H0.58V0.26H7.39V2.18H2.605ZM8.86539 3.65H10.7104V4.61H10.8304C11.0604 4.25 11.3704 3.96 11.7604 3.74C12.1604 3.52 12.6004 3.41 13.0804 3.41C13.6404 3.41 14.1104 3.54 14.4904 3.8C14.8704 4.06 15.1404 4.38 15.3004 4.76C15.5304 4.39 15.8554 4.075 16.2754 3.815C16.6954 3.545 17.2054 3.41 17.8054 3.41C18.2554 3.41 18.6454 3.485 18.9754 3.635C19.3054 3.775 19.5754 3.975 19.7854 4.235C20.0054 4.495 20.1704 4.81 20.2804 5.18C20.3904 5.54 20.4454 5.935 20.4454 6.365V11H18.4804V6.725C18.4804 5.725 18.0704 5.225 17.2504 5.225C16.9904 5.225 16.7604 5.285 16.5604 5.405C16.3604 5.515 16.1904 5.67 16.0504 5.87C15.9204 6.06 15.8154 6.29 15.7354 6.56C15.6654 6.83 15.6304 7.12 15.6304 7.43V11H13.6654V6.725C13.6654 5.725 13.2354 5.225 12.3754 5.225C12.1254 5.225 11.9054 5.285 11.7154 5.405C11.5254 5.515 11.3654 5.67 11.2354 5.87C11.1054 6.06 11.0054 6.29 10.9354 6.56C10.8654 6.83 10.8304 7.12 10.8304 7.43V11H8.86539V3.65ZM25.5436 3.41C26.1136 3.41 26.6336 3.51 27.1036 3.71C27.5836 3.9 27.9936 4.17 28.3336 4.52C28.6836 4.86 28.9536 5.27 29.1436 5.75C29.3436 6.23 29.4436 6.755 29.4436 7.325C29.4436 7.895 29.3436 8.42 29.1436 8.9C28.9536 9.38 28.6836 9.795 28.3336 10.145C27.9936 10.485 27.5836 10.755 27.1036 10.955C26.6336 11.145 26.1136 11.24 25.5436 11.24C24.9736 11.24 24.4486 11.145 23.9686 10.955C23.4986 10.755 23.0886 10.485 22.7386 10.145C22.3986 9.795 22.1286 9.38 21.9286 8.9C21.7386 8.42 21.6436 7.895 21.6436 7.325C21.6436 6.755 21.7386 6.23 21.9286 5.75C22.1286 5.27 22.3986 4.86 22.7386 4.52C23.0886 4.17 23.4986 3.9 23.9686 3.71C24.4486 3.51 24.9736 3.41 25.5436 3.41ZM25.5436 9.425C25.7936 9.425 26.0336 9.38 26.2636 9.29C26.5036 9.19 26.7136 9.05 26.8936 8.87C27.0736 8.69 27.2136 8.47 27.3136 8.21C27.4236 7.95 27.4786 7.655 27.4786 7.325C27.4786 6.995 27.4236 6.7 27.3136 6.44C27.2136 6.18 27.0736 5.96 26.8936 5.78C26.7136 5.6 26.5036 5.465 26.2636 5.375C26.0336 5.275 25.7936 5.225 25.5436 5.225C25.2836 5.225 25.0386 5.275 24.8086 5.375C24.5786 5.465 24.3736 5.6 24.1936 5.78C24.0136 5.96 23.8686 6.18 23.7586 6.44C23.6586 6.7 23.6086 6.995 23.6086 7.325C23.6086 7.655 23.6586 7.95 23.7586 8.21C23.8686 8.47 24.0136 8.69 24.1936 8.87C24.3736 9.05 24.5786 9.19 24.8086 9.29C25.0386 9.38 25.2836 9.425 25.5436 9.425ZM29.568 12.44C29.648 12.49 29.723 12.525 29.793 12.545C29.873 12.565 29.968 12.575 30.078 12.575C30.528 12.575 30.753 12.28 30.753 11.69V3.65H32.718V11.75C32.718 12.23 32.653 12.635 32.523 12.965C32.393 13.305 32.218 13.58 31.998 13.79C31.778 14 31.523 14.15 31.233 14.24C30.943 14.34 30.633 14.39 30.303 14.39C30.053 14.39 29.828 14.37 29.628 14.33C29.428 14.3 29.243 14.25 29.073 14.18L29.568 12.44ZM31.728 2.585C31.558 2.585 31.393 2.555 31.233 2.495C31.083 2.425 30.948 2.335 30.828 2.225C30.718 2.105 30.628 1.97 30.558 1.82C30.498 1.67 30.468 1.505 30.468 1.325C30.468 1.145 30.498 0.979999 30.558 0.83C30.628 0.68 30.718 0.55 30.828 0.439999C30.948 0.32 31.083 0.229999 31.233 0.169999C31.393 0.0999994 31.558 0.0649995 31.728 0.0649995C32.078 0.0649995 32.378 0.189999 32.628 0.439999C32.878 0.68 33.003 0.975 33.003 1.325C33.003 1.675 32.878 1.975 32.628 2.225C32.378 2.465 32.078 2.585 31.728 2.585ZM35.6098 2.585C35.4398 2.585 35.2748 2.555 35.1148 2.495C34.9648 2.425 34.8298 2.335 34.7098 2.225C34.5998 2.105 34.5098 1.97 34.4398 1.82C34.3798 1.67 34.3498 1.505 34.3498 1.325C34.3498 1.145 34.3798 0.979999 34.4398 0.83C34.5098 0.68 34.5998 0.55 34.7098 0.439999C34.8298 0.32 34.9648 0.229999 35.1148 0.169999C35.2748 0.0999994 35.4398 0.0649995 35.6098 0.0649995C35.9598 0.0649995 36.2598 0.189999 36.5098 0.439999C36.7598 0.68 36.8848 0.975 36.8848 1.325C36.8848 1.675 36.7598 1.975 36.5098 2.225C36.2598 2.465 35.9598 2.585 35.6098 2.585ZM34.6348 11V3.65H36.5998V11H34.6348ZM42.0266 0.139999C42.3066 0.139999 42.5666 0.164999 42.8066 0.214999C43.0466 0.264999 43.2616 0.329999 43.4516 0.41L42.8966 2.165C42.7966 2.115 42.6866 2.075 42.5666 2.045C42.4566 2.015 42.3166 2 42.1466 2C41.8566 2 41.6266 2.095 41.4566 2.285C41.2866 2.465 41.2016 2.72 41.2016 3.05V3.65H43.0316V5.33H41.2016V11H39.2366V5.33H37.9166V3.65H39.2366V2.93C39.2366 2.48 39.3016 2.085 39.4316 1.745C39.5716 1.395 39.7666 1.105 40.0166 0.875C40.2666 0.634999 40.5616 0.454999 40.9016 0.335C41.2416 0.205 41.6166 0.139999 42.0266 0.139999ZM46.6686 10.64L43.5786 3.65H45.8136L47.6736 8.105H47.7786L49.5636 3.65H51.7536L47.1486 14.24H45.0336L46.6686 10.64ZM58.8664 0.26H61.1764L65.2114 11H62.9764L62.0914 8.435H57.9514L57.0664 11H54.8314L58.8664 0.26ZM61.4314 6.575L60.4714 3.89L60.0814 2.585H59.9614L59.5714 3.89L58.6114 6.575H61.4314ZM66.4687 0.26H68.4937V11H66.4687V0.26Z" fill="url(#paint0_linear_153_548)"/>
<defs>
<linearGradient id="paint0_linear_153_548" x1="-0.5" y1="6" x2="70.5" y2="6" gradientUnits="userSpaceOnUse">
<stop stop-color="#8BA0C2"/>
<stop offset="1" stop-color="#DBD8B0"/>
</linearGradient>
</defs>
</svg>
