<svg width="245" height="53" viewBox="0 0 245 53" fill="none" xmlns="http://www.w3.org/2000/svg">
<path d="M7.53738 8.248V17.212H23.0354V24.124H7.53738V33.088H24.7634V40H0.247375V1.336H24.7634V8.248H7.53738ZM30.0748 13.54H36.7168V16.996H37.1488C37.9768 15.7 39.0928 14.656 40.4968 13.864C41.9368 13.072 43.5208 12.676 45.2488 12.676C47.2648 12.676 48.9568 13.144 50.3248 14.08C51.6928 15.016 52.6648 16.168 53.2408 17.536C54.0688 16.204 55.2388 15.07 56.7508 14.134C58.2628 13.162 60.0988 12.676 62.2588 12.676C63.8788 12.676 65.2828 12.946 66.4708 13.486C67.6588 13.99 68.6308 14.71 69.3868 15.646C70.1788 16.582 70.7728 17.716 71.1688 19.048C71.5648 20.344 71.7628 21.766 71.7628 23.314V40H64.6888V24.61C64.6888 21.01 63.2128 19.21 60.2608 19.21C59.3248 19.21 58.4968 19.426 57.7768 19.858C57.0568 20.254 56.4448 20.812 55.9408 21.532C55.4728 22.216 55.0948 23.044 54.8068 24.016C54.5548 24.988 54.4288 26.032 54.4288 27.148V40H47.3548V24.61C47.3548 21.01 45.8068 19.21 42.7108 19.21C41.8108 19.21 41.0188 19.426 40.3348 19.858C39.6508 20.254 39.0748 20.812 38.6068 21.532C38.1388 22.216 37.7788 23.044 37.5268 24.016C37.2748 24.988 37.1488 26.032 37.1488 27.148V40H30.0748V13.54ZM90.1165 12.676C92.1685 12.676 94.0405 13.036 95.7325 13.756C97.4605 14.44 98.9365 15.412 100.16 16.672C101.42 17.896 102.392 19.372 103.076 21.1C103.796 22.828 104.156 24.718 104.156 26.77C104.156 28.822 103.796 30.712 103.076 32.44C102.392 34.168 101.42 35.662 100.16 36.922C98.9365 38.146 97.4605 39.118 95.7325 39.838C94.0405 40.522 92.1685 40.864 90.1165 40.864C88.0645 40.864 86.1745 40.522 84.4465 39.838C82.7545 39.118 81.2785 38.146 80.0185 36.922C78.7945 35.662 77.8225 34.168 77.1025 32.44C76.4185 30.712 76.0765 28.822 76.0765 26.77C76.0765 24.718 76.4185 22.828 77.1025 21.1C77.8225 19.372 78.7945 17.896 80.0185 16.672C81.2785 15.412 82.7545 14.44 84.4465 13.756C86.1745 13.036 88.0645 12.676 90.1165 12.676ZM90.1165 34.33C91.0165 34.33 91.8805 34.168 92.7085 33.844C93.5725 33.484 94.3285 32.98 94.9765 32.332C95.6245 31.684 96.1285 30.892 96.4885 29.956C96.8845 29.02 97.0825 27.958 97.0825 26.77C97.0825 25.582 96.8845 24.52 96.4885 23.584C96.1285 22.648 95.6245 21.856 94.9765 21.208C94.3285 20.56 93.5725 20.074 92.7085 19.75C91.8805 19.39 91.0165 19.21 90.1165 19.21C89.1805 19.21 88.2985 19.39 87.4705 19.75C86.6425 20.074 85.9045 20.56 85.2565 21.208C84.6085 21.856 84.0865 22.648 83.6905 23.584C83.3305 24.52 83.1505 25.582 83.1505 26.77C83.1505 27.958 83.3305 29.02 83.6905 29.956C84.0865 30.892 84.6085 31.684 85.2565 32.332C85.9045 32.98 86.6425 33.484 87.4705 33.844C88.2985 34.168 89.1805 34.33 90.1165 34.33ZM104.604 45.184C104.892 45.364 105.162 45.49 105.414 45.562C105.702 45.634 106.044 45.67 106.44 45.67C108.06 45.67 108.87 44.608 108.87 42.484V13.54H115.944V42.7C115.944 44.428 115.71 45.886 115.242 47.074C114.774 48.298 114.144 49.288 113.352 50.044C112.56 50.8 111.642 51.34 110.598 51.664C109.554 52.024 108.438 52.204 107.25 52.204C106.35 52.204 105.54 52.132 104.82 51.988C104.1 51.88 103.434 51.7 102.822 51.448L104.604 45.184ZM112.38 9.706C111.768 9.706 111.174 9.598 110.598 9.382C110.058 9.13 109.572 8.806 109.14 8.41C108.744 7.978 108.42 7.492 108.168 6.952C107.952 6.412 107.844 5.818 107.844 5.17C107.844 4.522 107.952 3.928 108.168 3.388C108.42 2.848 108.744 2.38 109.14 1.984C109.572 1.552 110.058 1.228 110.598 1.012C111.174 0.759998 111.768 0.633998 112.38 0.633998C113.64 0.633998 114.72 1.084 115.62 1.984C116.52 2.848 116.97 3.91 116.97 5.17C116.97 6.43 116.52 7.51 115.62 8.41C114.72 9.274 113.64 9.706 112.38 9.706ZM126.355 9.706C125.743 9.706 125.149 9.598 124.573 9.382C124.033 9.13 123.547 8.806 123.115 8.41C122.719 7.978 122.395 7.492 122.143 6.952C121.927 6.412 121.819 5.818 121.819 5.17C121.819 4.522 121.927 3.928 122.143 3.388C122.395 2.848 122.719 2.38 123.115 1.984C123.547 1.552 124.033 1.228 124.573 1.012C125.149 0.759998 125.743 0.633998 126.355 0.633998C127.615 0.633998 128.695 1.084 129.595 1.984C130.495 2.848 130.945 3.91 130.945 5.17C130.945 6.43 130.495 7.51 129.595 8.41C128.695 9.274 127.615 9.706 126.355 9.706ZM122.845 40V13.54H129.919V40H122.845ZM149.455 0.903998C150.463 0.903998 151.399 0.993998 152.263 1.174C153.127 1.354 153.901 1.588 154.585 1.876L152.587 8.194C152.227 8.014 151.831 7.87 151.399 7.762C151.003 7.654 150.499 7.6 149.887 7.6C148.843 7.6 148.015 7.942 147.403 8.626C146.791 9.274 146.485 10.192 146.485 11.38V13.54H153.073V19.588H146.485V40H139.411V19.588H134.659V13.54H139.411V10.948C139.411 9.328 139.645 7.906 140.113 6.682C140.617 5.422 141.319 4.378 142.219 3.55C143.119 2.686 144.181 2.038 145.405 1.606C146.629 1.138 147.979 0.903998 149.455 0.903998ZM166.166 38.704L155.042 13.54H163.088L169.784 29.578H170.162L176.588 13.54H184.472L167.894 51.664H160.28L166.166 38.704ZM210.078 1.336H218.394L232.92 40H224.874L221.688 30.766H206.784L203.598 40H195.552L210.078 1.336ZM219.312 24.07L215.856 14.404L214.452 9.706H214.02L212.616 14.404L209.16 24.07H219.312ZM237.447 1.336H244.737V40H237.447V1.336Z" fill="url(#paint0_linear_28_66)"/>
<defs>
<linearGradient id="paint0_linear_28_66" x1="-4" y1="21" x2="249" y2="21" gradientUnits="userSpaceOnUse">
<stop stop-color="#5D80CC"/>
<stop offset="1" stop-color="#E4DEAE"/>
</linearGradient>
</defs>
</svg>
