<svg width="141" height="31" viewBox="0 0 141 31" fill="none" xmlns="http://www.w3.org/2000/svg">
<path d="M4.32625 4.044V10.348H13.6383V13.74H4.32625V20.044H14.6623V23.5H0.71025V0.587999H14.6623V4.044H4.32625ZM17.792 7.82H21.152V9.932H21.344C21.8347 9.164 22.5173 8.53467 23.392 8.044C24.2667 7.55333 25.1947 7.308 26.176 7.308C27.3493 7.308 28.352 7.58533 29.184 8.14C30.0373 8.67333 30.656 9.37733 31.04 10.252C31.5733 9.42 32.288 8.72667 33.184 8.172C34.08 7.596 35.1573 7.308 36.416 7.308C37.376 7.308 38.208 7.468 38.912 7.788C39.616 8.08667 40.192 8.51333 40.64 9.068C41.1093 9.62267 41.4613 10.2947 41.696 11.084C41.9307 11.852 42.048 12.716 42.048 13.676V23.5H38.496V14.284C38.496 12.9187 38.2293 11.9693 37.696 11.436C37.184 10.8813 36.4267 10.604 35.424 10.604C34.848 10.604 34.3253 10.732 33.856 10.988C33.408 11.244 33.024 11.596 32.704 12.044C32.384 12.4707 32.1387 12.972 31.968 13.548C31.7973 14.124 31.712 14.732 31.712 15.372V23.5H28.16V14.284C28.16 12.9187 27.8827 11.9693 27.328 11.436C26.7947 10.8813 26.016 10.604 24.992 10.604C24.4373 10.604 23.936 10.732 23.488 10.988C23.04 11.244 22.656 11.596 22.336 12.044C22.016 12.4707 21.7707 12.972 21.6 13.548C21.4293 14.124 21.344 14.732 21.344 15.372V23.5H17.792V7.82ZM52.8068 7.308C54.0014 7.308 55.1001 7.52133 56.1028 7.948C57.1054 8.35333 57.9694 8.92933 58.6948 9.676C59.4201 10.4227 59.9854 11.308 60.3908 12.332C60.7961 13.356 60.9988 14.4653 60.9988 15.66C60.9988 16.8547 60.7961 17.964 60.3908 18.988C59.9854 20.012 59.4201 20.8973 58.6948 21.644C57.9694 22.3907 57.1054 22.9773 56.1028 23.404C55.1001 23.8093 54.0014 24.012 52.8068 24.012C51.6121 24.012 50.5134 23.8093 49.5108 23.404C48.5081 22.9773 47.6441 22.3907 46.9188 21.644C46.1934 20.8973 45.6281 20.012 45.2228 18.988C44.8174 17.964 44.6148 16.8547 44.6148 15.66C44.6148 14.4653 44.8174 13.356 45.2228 12.332C45.6281 11.308 46.1934 10.4227 46.9188 9.676C47.6441 8.92933 48.5081 8.35333 49.5108 7.948C50.5134 7.52133 51.6121 7.308 52.8068 7.308ZM52.8068 20.716C53.4041 20.716 53.9801 20.5987 54.5348 20.364C55.0894 20.1293 55.5801 19.7987 56.0068 19.372C56.4548 18.9453 56.8068 18.4227 57.0628 17.804C57.3188 17.164 57.4468 16.4493 57.4468 15.66C57.4468 14.8707 57.3188 14.1667 57.0628 13.548C56.8068 12.908 56.4548 12.3747 56.0068 11.948C55.5801 11.5213 55.0894 11.1907 54.5348 10.956C53.9801 10.7213 53.4041 10.604 52.8068 10.604C52.2094 10.604 51.6334 10.7213 51.0788 10.956C50.5241 11.1907 50.0228 11.5213 49.5748 11.948C49.1481 12.3747 48.8068 12.908 48.5508 13.548C48.2948 14.1667 48.1668 14.8707 48.1668 15.66C48.1668 16.4493 48.2948 17.164 48.5508 17.804C48.8068 18.4227 49.1481 18.9453 49.5748 19.372C50.0228 19.7987 50.5241 20.1293 51.0788 20.364C51.6334 20.5987 52.2094 20.716 52.8068 20.716ZM61.174 27.244C61.4727 27.3933 61.7927 27.468 62.134 27.468C62.7527 27.468 63.1793 27.276 63.414 26.892C63.67 26.5293 63.798 26.0067 63.798 25.324V7.82H67.35V25.356C67.35 26.316 67.222 27.1373 66.966 27.82C66.7313 28.5027 66.39 29.0573 65.942 29.484C65.494 29.9107 64.9713 30.22 64.374 30.412C63.7767 30.6253 63.126 30.732 62.422 30.732C61.9953 30.732 61.6113 30.6893 61.27 30.604C60.9073 30.54 60.566 30.4547 60.246 30.348L61.174 27.244ZM65.59 5.036C64.9073 5.036 64.3313 4.80133 63.862 4.332C63.414 3.86267 63.19 3.29733 63.19 2.636C63.19 1.97467 63.414 1.40933 63.862 0.939999C64.3313 0.470665 64.9073 0.235998 65.59 0.235998C66.2513 0.235998 66.806 0.470665 67.254 0.939999C67.7233 1.40933 67.958 1.97467 67.958 2.636C67.958 3.29733 67.7233 3.86267 67.254 4.332C66.806 4.80133 66.2513 5.036 65.59 5.036ZM73.2463 5.036C72.5636 5.036 71.9876 4.80133 71.5182 4.332C71.0703 3.86267 70.8463 3.29733 70.8463 2.636C70.8463 1.97467 71.0703 1.40933 71.5182 0.939999C71.9876 0.470665 72.5636 0.235998 73.2463 0.235998C73.9076 0.235998 74.4623 0.470665 74.9103 0.939999C75.3796 1.40933 75.6143 1.97467 75.6143 2.636C75.6143 3.29733 75.3796 3.86267 74.9103 4.332C74.4623 4.80133 73.9076 5.036 73.2463 5.036ZM71.4543 23.5V7.82H75.0063V23.5H71.4543ZM86.3425 0.331999C86.9398 0.331999 87.4732 0.385332 87.9425 0.491999C88.4118 0.598665 88.8278 0.737332 89.1905 0.907999L88.1985 4.044C87.9638 3.93733 87.7185 3.852 87.4625 3.788C87.2065 3.724 86.8865 3.692 86.5025 3.692C85.8838 3.692 85.3505 3.90533 84.9025 4.332C84.4758 4.75867 84.2625 5.37733 84.2625 6.188V7.82H88.2625V10.956H84.2625V23.5H80.7105V10.956H77.8305V7.82H80.7105V5.932C80.7105 5.05733 80.8492 4.27867 81.1265 3.596C81.4038 2.892 81.7878 2.30533 82.2785 1.836C82.7905 1.34533 83.3878 0.971999 84.0705 0.716C84.7745 0.459999 85.5318 0.331999 86.3425 0.331999ZM95.9685 22.604L89.4405 7.82H93.4085L97.7285 18.22H97.8885L102.081 7.82H106.017L96.1925 30.412H92.4165L95.9685 22.604ZM121.211 0.587999H125.371L133.979 23.5H129.979L127.899 17.612H118.683L116.603 23.5H112.603L121.211 0.587999ZM126.683 14.316L124.283 7.564L123.387 4.876H123.195L122.299 7.564L119.899 14.316H126.683ZM136.679 0.587999H140.295V23.5H136.679V0.587999Z" fill="url(#paint0_linear_21_71)"/>
<defs>
<linearGradient id="paint0_linear_21_71" x1="-2" y1="12" x2="143" y2="12" gradientUnits="userSpaceOnUse">
<stop stop-color="#597DCC"/>
<stop offset="1" stop-color="#E8E1AD"/>
</linearGradient>
</defs>
</svg>
