<svg width="92" height="20" viewBox="0 0 92 20" fill="none" xmlns="http://www.w3.org/2000/svg">
<path d="M3.42125 3.24V6.56H9.16125V9.12H3.42125V12.44H9.80125V15H0.72125V0.68H9.80125V3.24H3.42125ZM11.7684 5.2H14.2284V6.48H14.3884C14.6951 6 15.1084 5.61333 15.6284 5.32C16.1618 5.02667 16.7484 4.88 17.3884 4.88C18.1351 4.88 18.7618 5.05333 19.2684 5.4C19.7751 5.74667 20.1351 6.17333 20.3484 6.68C20.6551 6.18667 21.0884 5.76667 21.6484 5.42C22.2084 5.06 22.8884 4.88 23.6884 4.88C24.2884 4.88 24.8084 4.98 25.2484 5.18C25.6884 5.36667 26.0484 5.63333 26.3284 5.98C26.6218 6.32667 26.8418 6.74667 26.9884 7.24C27.1351 7.72 27.2084 8.24667 27.2084 8.82V15H24.5884V9.3C24.5884 7.96667 24.0418 7.3 22.9484 7.3C22.6018 7.3 22.2951 7.38 22.0284 7.54C21.7618 7.68667 21.5351 7.89333 21.3484 8.16C21.1751 8.41333 21.0351 8.72 20.9284 9.08C20.8351 9.44 20.7884 9.82667 20.7884 10.24V15H18.1684V9.3C18.1684 7.96667 17.5951 7.3 16.4484 7.3C16.1151 7.3 15.8218 7.38 15.5684 7.54C15.3151 7.68667 15.1018 7.89333 14.9284 8.16C14.7551 8.41333 14.6218 8.72 14.5284 9.08C14.4351 9.44 14.3884 9.82667 14.3884 10.24V15H11.7684V5.2ZM34.0061 4.88C34.7661 4.88 35.4594 5.01333 36.0861 5.28C36.7261 5.53333 37.2728 5.89333 37.7261 6.36C38.1928 6.81333 38.5528 7.36 38.8061 8C39.0728 8.64 39.2061 9.34 39.2061 10.1C39.2061 10.86 39.0728 11.56 38.8061 12.2C38.5528 12.84 38.1928 13.3933 37.7261 13.86C37.2728 14.3133 36.7261 14.6733 36.0861 14.94C35.4594 15.1933 34.7661 15.32 34.0061 15.32C33.2461 15.32 32.5461 15.1933 31.9061 14.94C31.2794 14.6733 30.7328 14.3133 30.2661 13.86C29.8128 13.3933 29.4528 12.84 29.1861 12.2C28.9328 11.56 28.8061 10.86 28.8061 10.1C28.8061 9.34 28.9328 8.64 29.1861 8C29.4528 7.36 29.8128 6.81333 30.2661 6.36C30.7328 5.89333 31.2794 5.53333 31.9061 5.28C32.5461 5.01333 33.2461 4.88 34.0061 4.88ZM34.0061 12.9C34.3394 12.9 34.6594 12.84 34.9661 12.72C35.2861 12.5867 35.5661 12.4 35.8061 12.16C36.0461 11.92 36.2328 11.6267 36.3661 11.28C36.5128 10.9333 36.5861 10.54 36.5861 10.1C36.5861 9.66 36.5128 9.26667 36.3661 8.92C36.2328 8.57333 36.0461 8.28 35.8061 8.04C35.5661 7.8 35.2861 7.62 34.9661 7.5C34.6594 7.36667 34.3394 7.3 34.0061 7.3C33.6594 7.3 33.3328 7.36667 33.0261 7.5C32.7194 7.62 32.4461 7.8 32.2061 8.04C31.9661 8.28 31.7728 8.57333 31.6261 8.92C31.4928 9.26667 31.4261 9.66 31.4261 10.1C31.4261 10.54 31.4928 10.9333 31.6261 11.28C31.7728 11.6267 31.9661 11.92 32.2061 12.16C32.4461 12.4 32.7194 12.5867 33.0261 12.72C33.3328 12.84 33.6594 12.9 34.0061 12.9ZM39.3719 16.92C39.4785 16.9867 39.5785 17.0333 39.6719 17.06C39.7785 17.0867 39.9052 17.1 40.0519 17.1C40.6519 17.1 40.9519 16.7067 40.9519 15.92V5.2H43.5719V16C43.5719 16.64 43.4852 17.18 43.3119 17.62C43.1385 18.0733 42.9052 18.44 42.6119 18.72C42.3185 19 41.9785 19.2 41.5919 19.32C41.2052 19.4533 40.7919 19.52 40.3519 19.52C40.0185 19.52 39.7185 19.4933 39.4519 19.44C39.1852 19.4 38.9385 19.3333 38.7119 19.24L39.3719 16.92ZM42.2519 3.78C42.0252 3.78 41.8052 3.74 41.5919 3.66C41.3919 3.56667 41.2119 3.44667 41.0519 3.3C40.9052 3.14 40.7852 2.96 40.6919 2.76C40.6119 2.56 40.5719 2.34 40.5719 2.1C40.5719 1.86 40.6119 1.64 40.6919 1.44C40.7852 1.24 40.9052 1.06667 41.0519 0.919999C41.2119 0.759999 41.3919 0.639999 41.5919 0.559999C41.8052 0.466666 42.0252 0.419999 42.2519 0.419999C42.7185 0.419999 43.1185 0.586666 43.4519 0.919999C43.7852 1.24 43.9519 1.63333 43.9519 2.1C43.9519 2.56667 43.7852 2.96667 43.4519 3.3C43.1185 3.62 42.7185 3.78 42.2519 3.78ZM47.4277 3.78C47.201 3.78 46.981 3.74 46.7677 3.66C46.5677 3.56667 46.3877 3.44667 46.2277 3.3C46.081 3.14 45.961 2.96 45.8677 2.76C45.7877 2.56 45.7477 2.34 45.7477 2.1C45.7477 1.86 45.7877 1.64 45.8677 1.44C45.961 1.24 46.081 1.06667 46.2277 0.919999C46.3877 0.759999 46.5677 0.639999 46.7677 0.559999C46.981 0.466666 47.201 0.419999 47.4277 0.419999C47.8943 0.419999 48.2943 0.586666 48.6277 0.919999C48.961 1.24 49.1277 1.63333 49.1277 2.1C49.1277 2.56667 48.961 2.96667 48.6277 3.3C48.2943 3.62 47.8943 3.78 47.4277 3.78ZM46.1277 15V5.2H48.7477V15H46.1277ZM55.9834 0.519999C56.3568 0.519999 56.7034 0.553333 57.0234 0.619999C57.3434 0.686666 57.6301 0.773333 57.8834 0.879999L57.1434 3.22C57.0101 3.15333 56.8634 3.1 56.7034 3.06C56.5568 3.02 56.3701 3 56.1434 3C55.7568 3 55.4501 3.12667 55.2234 3.38C54.9968 3.62 54.8834 3.96 54.8834 4.4V5.2H57.3234V7.44H54.8834V15H52.2634V7.44H50.5034V5.2H52.2634V4.24C52.2634 3.64 52.3501 3.11333 52.5234 2.66C52.7101 2.19333 52.9701 1.80667 53.3034 1.5C53.6368 1.18 54.0301 0.939999 54.4834 0.779999C54.9368 0.606666 55.4368 0.519999 55.9834 0.519999ZM62.1727 14.52L58.0527 5.2H61.0327L63.5127 11.14H63.6527L66.0327 5.2H68.9527L62.8127 19.32H59.9927L62.1727 14.52ZM78.4364 0.68H81.5164L86.8964 15H83.9164L82.7364 11.58H77.2164L76.0364 15H73.0564L78.4364 0.68ZM81.8564 9.1L80.5764 5.52L80.0564 3.78H79.8964L79.3764 5.52L78.0964 9.1H81.8564ZM88.5728 0.68H91.2728V15H88.5728V0.68Z" fill="url(#paint0_linear_344_65)"/>
<defs>
<linearGradient id="paint0_linear_344_65" x1="-1" y1="8" x2="93" y2="8" gradientUnits="userSpaceOnUse">
<stop offset="0.596706" stop-color="#6082CC"/>
<stop offset="1" stop-color="#E2DDAF"/>
</linearGradient>
</defs>
</svg>
