<svg width="1920" height="1070" viewBox="0 0 1920 1070" fill="none" xmlns="http://www.w3.org/2000/svg">
<g opacity="0.3" clip-path="url(#clip0_129_109)">
<path d="M1894.38 1069.09V0.139648" stroke="#727272" stroke-dasharray="6 6"/>
<path d="M1828.33 1069.09V0.139648" stroke="#727272" stroke-dasharray="6 6"/>
<path d="M1762.27 1069.09V0.139648" stroke="#727272" stroke-dasharray="6 6"/>
<path d="M1696.22 1069.09V0.139648" stroke="#727272" stroke-dasharray="6 6"/>
<path d="M1630.16 1069.09V0.139648" stroke="#727272" stroke-dasharray="6 6"/>
<path d="M1564.09 1069.09V0.139648" stroke="#727272" stroke-dasharray="6 6"/>
<path d="M1498.04 1069.09V0.139648" stroke="#727272" stroke-dasharray="6 6"/>
<path d="M1431.98 1069.09V0.139648" stroke="#727272" stroke-dasharray="6 6"/>
<path d="M1365.93 1069.09V0.139648" stroke="#727272" stroke-dasharray="6 6"/>
<path d="M1299.87 1069.09V0.139648" stroke="#727272" stroke-dasharray="6 6"/>
<path d="M1233.81 1069.09V0.139648" stroke="#727272" stroke-dasharray="6 6"/>
<path d="M1167.76 1069.09V0.139648" stroke="#727272" stroke-dasharray="6 6"/>
<path d="M1101.69 1069.09V0.139648" stroke="#727272" stroke-dasharray="6 6"/>
<path d="M1035.63 1069.09V0.139648" stroke="#727272" stroke-dasharray="6 6"/>
<path d="M969.541 1069.1V0.155273" stroke="#727272" stroke-dasharray="6 6"/>
<path d="M903.484 1069.1V0.155273" stroke="#727272" stroke-dasharray="6 6"/>
<path d="M837.424 1069.1V0.155273" stroke="#727272" stroke-dasharray="6 6"/>
<path d="M771.368 1069.1V0.155273" stroke="#727272" stroke-dasharray="6 6"/>
<path d="M705.312 1069.1V0.155273" stroke="#727272" stroke-dasharray="6 6"/>
<path d="M639.251 1069.1V0.155273" stroke="#727272" stroke-dasharray="6 6"/>
<path d="M573.195 1069.1V0.155273" stroke="#727272" stroke-dasharray="6 6"/>
<path d="M507.13 1069.1L507.132 0.155273" stroke="#727272" stroke-dasharray="6 6"/>
<path d="M441.078 1069.1V0.155273" stroke="#727272" stroke-dasharray="6 6"/>
<path d="M375.028 1069.1V0.155273" stroke="#727272" stroke-dasharray="6 6"/>
<path d="M308.958 1069.1L308.959 0.155273" stroke="#727272" stroke-dasharray="6 6"/>
<path d="M242.897 1069.1V0.155273" stroke="#727272" stroke-dasharray="6 6"/>
<path d="M176.841 1069.1V0.155273" stroke="#727272" stroke-dasharray="6 6"/>
<path d="M110.785 1069.1L110.785 0.155273" stroke="#727272" stroke-dasharray="6 6"/>
<path d="M44.7373 1069.1L44.7374 0.155273" stroke="#727272" stroke-dasharray="6 6"/>
<path d="M0.51709 1022.78L2073.42 1022.78" stroke="#727272" stroke-dasharray="6 6"/>
<path d="M0.51709 957.6H2073.42" stroke="#727272" stroke-dasharray="6 6"/>
<path d="M0.51709 892.419H2073.42" stroke="#727272" stroke-dasharray="6 6"/>
<path d="M0.51709 827.238L2073.42 827.24" stroke="#727272" stroke-dasharray="6 6"/>
<path d="M0.51709 762.059H2073.42" stroke="#727272" stroke-dasharray="6 6"/>
<path d="M0.51709 696.881H2073.42" stroke="#727272" stroke-dasharray="6 6"/>
<path d="M0.51709 631.697L2073.42 631.699" stroke="#727272" stroke-dasharray="6 6"/>
<path d="M0.51709 566.519H2073.42" stroke="#727272" stroke-dasharray="6 6"/>
<path d="M0.51709 501.34H2073.42" stroke="#727272" stroke-dasharray="6 6"/>
<path d="M0.51709 436.159L2073.42 436.161" stroke="#727272" stroke-dasharray="6 6"/>
<path d="M0.51709 370.98H2073.42" stroke="#727272" stroke-dasharray="6 6"/>
<path d="M0.51709 305.803H2073.42" stroke="#727272" stroke-dasharray="6 6"/>
<path d="M0.51709 240.622L2073.42 240.623" stroke="#727272" stroke-dasharray="6 6"/>
<path d="M0.51709 175.442H2073.42" stroke="#727272" stroke-dasharray="6 6"/>
<path d="M0.51709 110.262L2073.42 110.262" stroke="#727272" stroke-dasharray="6 6"/>
<path d="M0.516602 45.084L2073.42 45.0842" stroke="#727272" stroke-dasharray="6 6"/>
</g>
<defs>
<clipPath id="clip0_129_109">
<rect width="1920" height="1070" fill="white"/>
</clipPath>
</defs>
</svg>
