<svg width="25" height="24" viewBox="0 0 25 24" fill="none" xmlns="http://www.w3.org/2000/svg">
<path d="M20.3825 4.88109L19.6465 4.14515C19.4385 3.93716 19.0545 3.96917 18.8145 4.25711L16.2543 6.80108C15.1023 6.30514 13.8384 6.06514 12.5103 6.06514C8.55822 6.08107 5.13444 8.38504 3.48633 11.6973C3.3903 11.9052 3.3903 12.1612 3.48633 12.3372C4.25426 13.9052 5.40633 15.2012 6.84633 16.1772L4.75034 18.3051C4.51034 18.5451 4.47833 18.9291 4.63838 19.1371L5.37432 19.8731C5.58231 20.081 5.9663 20.049 6.2063 19.7611L20.2542 5.71321C20.5582 5.47334 20.5902 5.08938 20.3822 4.88137L20.3825 4.88109ZM13.3583 9.71298C13.0863 9.64896 12.7984 9.56901 12.5264 9.56901C11.1663 9.56901 10.0784 10.657 10.0784 12.0169C10.0784 12.2889 10.1424 12.5769 10.2224 12.8489L9.15028 13.9049C8.83032 13.345 8.65433 12.7209 8.65433 12.017C8.65433 9.88899 10.3664 8.17697 12.4943 8.17697C13.1984 8.17697 13.8224 8.35295 14.3823 8.67291L13.3583 9.71298Z" fill="#666666" fill-opacity="0.8"/>
<path d="M21.5344 11.6974C20.9745 10.5774 20.2384 9.56945 19.3265 8.75342L16.3504 11.6974V12.0174C16.3504 14.1454 14.6384 15.8574 12.5104 15.8574H12.1905L10.3025 17.7454C11.0065 17.8893 11.7425 17.9854 12.4625 17.9854C16.4146 17.9854 19.8384 15.6814 21.4865 12.3532C21.6305 12.1292 21.6305 11.9053 21.5345 11.6973L21.5344 11.6974Z" fill="#666666" fill-opacity="0.8"/>
</svg>
